<?xml version="1.0" standalone="no"?>
<!DOCTYPE svg PUBLIC "-//W3C//DTD SVG 20010904//EN"
 "http://www.w3.org/TR/2001/REC-SVG-20010904/DTD/svg10.dtd">
<svg version="1.0" xmlns="http://www.w3.org/2000/svg"
 width="1019.000000pt" height="262.000000pt" viewBox="0 0 1019.000000 262.000000"
 preserveAspectRatio="xMidYMid meet">

<g transform="translate(0.000000,262.000000) scale(0.100000,-0.100000)"
fill="#184ca7" stroke="none">
<path d="M4015 1985 c-561 -73 -1023 -130 -1027 -128 -5 2 -8 60 -8 129 l0
124 -205 0 -205 0 0 -154 0 -154 -32 -6 c-18 -3 -265 -35 -548 -71 -283 -36
-516 -67 -517 -69 -2 -2 -1 -22 3 -45 6 -39 9 -42 33 -37 14 3 327 44 696 91
369 46 1158 147 1755 224 l1085 140 225 -29 c124 -16 950 -122 1835 -235 886
-113 1622 -208 1636 -211 24 -5 27 -2 33 37 4 23 5 43 3 45 -1 2 -306 42 -677
89 -492 62 -2642 337 -3040 388 -14 2 -484 -56 -1045 -128z"/>
<path d="M1560 1055 l0 -317 228 5 c255 4 288 11 343 66 63 63 61 161 -5 219
-19 16 -39 31 -46 34 -7 2 3 19 23 40 48 51 56 103 27 163 -17 36 -32 49 -78
72 -56 28 -60 28 -274 31 l-218 4 0 -317z m362 148 c45 -41 9 -73 -83 -73
l-69 0 0 45 0 45 67 0 c48 0 72 -5 85 -17z m28 -233 c24 -24 24 -29 4 -58 -14
-20 -24 -22 -100 -22 l-84 0 0 50 0 50 80 0 c67 0 83 -3 100 -20z"/>
<path d="M2410 1056 l0 -316 105 0 105 0 0 80 0 80 30 0 c26 0 37 -10 86 -80
l56 -80 109 0 c61 0 108 4 105 8 -2 4 -32 48 -65 97 l-61 89 30 19 c41 26 79
94 87 155 12 102 -40 188 -142 234 -45 20 -68 23 -247 26 l-198 4 0 -316z
m339 139 c46 -23 54 -66 20 -109 -18 -23 -27 -26 -85 -26 l-64 0 0 75 0 75 50
0 c28 0 64 -7 79 -15z"/>
<path d="M3237 1363 c-10 -9 -8 -306 2 -384 21 -159 109 -238 277 -247 143 -8
242 40 297 142 20 38 22 57 25 269 l3 227 -100 0 -100 0 -3 -204 c-3 -190 -5
-207 -24 -233 -27 -36 -98 -44 -133 -16 -33 27 -40 79 -41 276 l0 177 -98 0
c-54 0 -102 -3 -105 -7z"/>
<path d="M4100 1055 l0 -315 105 0 105 0 0 315 0 315 -105 0 -105 0 0 -315z"/>
<path d="M4580 1055 l0 -315 100 0 99 0 3 141 3 141 118 -141 118 -141 85 0
84 0 0 315 0 315 -100 0 -99 0 -3 -142 -3 -143 -120 142 -120 143 -82 0 -83 0
0 -315z"/>
<path d="M5460 1054 l0 -316 228 4 c221 3 228 4 284 30 66 31 89 61 96 127 6
62 -18 114 -67 143 -20 12 -37 23 -39 24 -2 1 13 18 34 36 32 30 38 42 41 89
3 42 0 61 -16 86 -46 74 -122 92 -378 93 l-183 0 0 -316z m351 156 c21 -12 25
-50 7 -68 -7 -7 -42 -12 -85 -12 l-73 0 0 45 0 45 66 0 c36 0 74 -5 85 -10z
m27 -236 c24 -17 29 -53 10 -72 -8 -8 -45 -12 -100 -12 l-88 0 0 50 0 50 78 0
c54 0 84 -5 100 -16z"/>
<path d="M6302 1152 l3 -218 30 -60 c50 -98 136 -144 271 -144 104 0 167 22
224 80 72 71 80 109 80 357 l0 203 -100 0 -100 0 0 -177 c-1 -196 -8 -249 -41
-275 -24 -20 -80 -24 -111 -7 -40 21 -48 66 -48 269 l0 190 -106 0 -106 0 4
-218z"/>
<path d="M7170 1055 l0 -315 100 0 100 0 0 140 c0 77 3 140 8 139 4 0 59 -63
122 -140 l115 -139 88 0 87 0 0 315 0 315 -105 0 -104 0 -3 -140 -3 -140 -118
140 -118 140 -84 0 -85 0 0 -315z"/>
<path d="M8050 1055 l0 -315 105 0 105 0 0 83 c0 74 3 86 23 105 l23 22 78
-105 78 -105 119 0 c65 0 119 1 119 3 0 2 -58 82 -130 177 l-130 173 97 106
c53 58 110 121 127 139 l30 32 -115 0 -114 0 -100 -112 -100 -112 -5 109 -5
110 -102 3 -103 3 0 -316z"/>
</g>
</svg>
