<svg width="375" height="290" viewBox="0 0 375 290" fill="none" xmlns="http://www.w3.org/2000/svg">
<path d="M57.5566 100.539C59.1504 101.132 60.377 101.992 61.2441 103.117C62.1191 104.242 62.5566 105.601 62.5566 107.195C62.5566 109.55 61.5801 111.378 59.6348 112.679C57.6855 113.972 54.8613 114.617 51.166 114.617H36.0098V87.6948H50.4004C53.9941 87.6948 56.7051 88.3354 58.541 89.6167C60.373 90.8979 61.291 92.6011 61.291 94.7261C61.291 95.9878 60.9707 97.1167 60.3379 98.1167C59.7129 99.1167 58.7832 99.9253 57.5566 100.539ZM44.9473 94.0386V98.0386H49.166C51.1426 98.0386 52.1348 97.3745 52.1348 96.0386C52.1348 94.7065 51.1426 94.0386 49.166 94.0386H44.9473ZM50.4004 108.273C52.4004 108.273 53.4004 107.566 53.4004 106.148C53.4004 104.742 52.4004 104.039 50.4004 104.039H44.9473V108.273H50.4004Z" fill="#004AAD"/>
<path d="M84.0625 107.851H81.5938V114.617H72.5156V87.6948H85.4844C87.9727 87.6948 90.1406 88.1089 91.9844 88.9292C93.8281 89.7417 95.25 90.9214 96.25 92.4604C97.25 94.0034 97.75 95.8003 97.75 97.8511C97.75 99.769 97.3125 101.445 96.4375 102.882C95.5703 104.32 94.3164 105.46 92.6719 106.304L98.3281 114.617H88.6406L84.0625 107.851ZM88.5938 97.8511C88.5938 96.8511 88.2852 96.0776 87.6719 95.5229C87.0547 94.9722 86.1328 94.6948 84.9062 94.6948H81.5938V100.992H84.9062C86.1328 100.992 87.0547 100.722 87.6719 100.179C88.2852 99.6284 88.5938 98.8511 88.5938 97.8511Z" fill="#004AAD"/>
<path d="M120.834 115.226C116.709 115.226 113.49 114.113 111.178 111.882C108.873 109.656 107.725 106.523 107.725 102.492V87.6948H116.803V102.226C116.803 104.207 117.15 105.644 117.85 106.539C118.557 107.437 119.576 107.882 120.912 107.882C122.244 107.882 123.26 107.437 123.959 106.539C124.666 105.644 125.021 104.207 125.021 102.226V87.6948H133.959V102.492C133.959 106.523 132.803 109.656 130.49 111.882C128.178 114.113 124.959 115.226 120.834 115.226Z" fill="#004AAD"/>
<path d="M144.872 87.6948H153.95V114.617H144.872V87.6948Z" fill="#004AAD"/>
<path d="M191.653 87.6948V114.617H184.185L173.966 102.382V114.617H165.106V87.6948H172.575L182.81 99.9292V87.6948H191.653Z" fill="#004AAD"/>
<path d="M224.352 100.539C225.945 101.132 227.172 101.992 228.039 103.117C228.914 104.242 229.352 105.601 229.352 107.195C229.352 109.55 228.375 111.378 226.43 112.679C224.48 113.972 221.656 114.617 217.961 114.617H202.805V87.6948H217.195C220.789 87.6948 223.5 88.3354 225.336 89.6167C227.168 90.8979 228.086 92.6011 228.086 94.7261C228.086 95.9878 227.766 97.1167 227.133 98.1167C226.508 99.1167 225.578 99.9253 224.352 100.539ZM211.742 94.0386V98.0386H215.961C217.938 98.0386 218.93 97.3745 218.93 96.0386C218.93 94.7065 217.938 94.0386 215.961 94.0386H211.742ZM217.195 108.273C219.195 108.273 220.195 107.566 220.195 106.148C220.195 104.742 219.195 104.039 217.195 104.039H211.742V108.273H217.195Z" fill="#004AAD"/>
<path d="M252.2 115.226C248.075 115.226 244.856 114.113 242.544 111.882C240.239 109.656 239.091 106.523 239.091 102.492V87.6948H248.169V102.226C248.169 104.207 248.517 105.644 249.216 106.539C249.923 107.437 250.942 107.882 252.278 107.882C253.61 107.882 254.626 107.437 255.325 106.539C256.032 105.644 256.388 104.207 256.388 102.226V87.6948H265.325V102.492C265.325 106.523 264.169 109.656 261.856 111.882C259.544 114.113 256.325 115.226 252.2 115.226Z" fill="#004AAD"/>
<path d="M302.785 87.6948V114.617H295.316L285.098 102.382V114.617H276.238V87.6948H283.707L293.941 99.9292V87.6948H302.785Z" fill="#004AAD"/>
<path d="M324.905 105.695L322.874 107.96V114.617H313.937V87.6948H322.874V97.4604L331.718 87.6948H341.608L330.827 99.5386L342.14 114.617H331.64L324.905 105.695Z" fill="#004AAD"/>
<path d="M32.3909 77.293L185.645 57.6523" stroke="#004AAD" stroke-width="5.00304"/>
<path d="M88.1406 70.9375L88.1406 55.9336" stroke="#004AAD" stroke-width="23.8698"/>
<path d="M185.387 57.6758L344.59 78.043" stroke="#004AAD" stroke-width="4.99526"/>
<path d="M184.48 57.1641L188.109 58.1367" stroke="#004AAD" stroke-width="3.90942"/>
</svg>
